<svg version="1.1" viewBox="0.0 0.0 100.0 100.0" fill="none" stroke="none" stroke-linecap="square" stroke-miterlimit="10" xmlns:xlink="http://www.w3.org/1999/xlink" xmlns="http://www.w3.org/2000/svg"><clipPath id="p.0"><path d="m0 0l100.0 0l0 100.0l-100.0 0l0 -100.0z" clip-rule="nonzero"/></clipPath><g clip-path="url(#p.0)"><path fill="#000000" fill-opacity="0.0" d="m0 0l100.0 0l0 100.0l-100.0 0z" fill-rule="evenodd"/><g filter="url(#shadowFilter-p.1)"><use xlink:href="#p.1" transform="matrix(1.0 0.0 0.0 1.0 0.0 2.0)"/></g><defs><filter id="shadowFilter-p.1" filterUnits="userSpaceOnUse"><feGaussianBlur in="SourceAlpha" stdDeviation="7.0" result="blur"/><feComponentTransfer in="blur" color-interpolation-filters="sRGB"><feFuncR type="linear" slope="0" intercept="0.0"/><feFuncG type="linear" slope="0" intercept="0.0"/><feFuncB type="linear" slope="0" intercept="0.0"/><feFuncA type="linear" slope="0.5" intercept="0"/></feComponentTransfer></filter></defs><g id="p.1"><path fill="#000000" fill-opacity="0.0" d="m23.49737 50.0l0 0c0 -14.637722 11.866217 -26.503937 26.503939 -26.503937l0 0c7.029278 0 13.77066 2.7923717 18.741116 7.762823c4.9704514 4.9704533 7.7628174 11.711832 7.7628174 18.741114l0 0c0 14.637718 -11.866211 26.503937 -26.503933 26.503937l0 0c-14.637722 0 -26.503939 -11.866219 -26.503939 -26.503937z" fill-rule="evenodd"/><path stroke="#ff0000" stroke-width="12.0" stroke-linejoin="round" stroke-linecap="butt" d="m23.49737 50.0l0 0c0 -14.637722 11.866217 -26.503937 26.503939 -26.503937l0 0c7.029278 0 13.77066 2.7923717 18.741116 7.762823c4.9704514 4.9704533 7.7628174 11.711832 7.7628174 18.741114l0 0c0 14.637718 -11.866211 26.503937 -26.503933 26.503937l0 0c-14.637722 0 -26.503939 -11.866219 -26.503939 -26.503937z" fill-rule="evenodd"/></g></g></svg>